<?xml version="1.0" encoding="utf-8"?>
<svg viewBox="0 0 240 115" xmlns="http://www.w3.org/2000/svg" xmlns:bx="https://boxy-svg.com">
  <defs>
    <bx:grid x="0" y="0" width="2.5" height="2.5"/>
  </defs>
  <polygon style="stroke-width: 5px; fill: none; stroke: rgb(31, 35, 40);" points="32.5 5 60 20 60 50 32.5 65 5 50 5 20"/>
  <text style="fill: rgb(31, 35, 40); font-family: Montserrat; font-size: 30px; font-weight: 700; white-space: pre;" x="77.6" y="43.083">graphene</text>
  <polygon style="stroke-width: 5px; fill: none; stroke: rgb(31, 35, 40);" points="60 50 87.5 65 87.5 95 60 110 32.5 95 32.5 65"/>
  <polygon style="stroke-width: 5px; fill: none; stroke: rgb(31, 35, 40);" points="115 50.638 142.5 65.638 142.5 95.638 115 110.638 87.5 95.638 87.5 65.638"/>
  <path d="M 60 20 L 87.5 5 L 115 20 L 142.5 5" style="stroke-width: 5px; fill: none; stroke: rgb(31, 35, 40);"/>
  <path d="M 197.5 95 L 170 110.578 L 142.5 95.578 L 142.5 65.578 L 170 50" style="stroke-width: 5px; fill: none; stroke: rgb(31, 35, 40);"/>
</svg>